# xmcd
#
# Track frame offsets: 
#        150
#        17990
#        27210
#        42711
#        57224
#        69752
#        81437
#        102474
#        122376
#        137552
#        156736
#        172406
#        182822
#        201028
#        215018
#        231284
#        245361
#        262541
#        275573
#
# Disc length: 3837 seconds
#
# Revision: 0
# Processed by: cddbd v1.5.2PL0 Copyright (c) Steve Scherf et al.
# Submitted via: ExactAudioCopy v1.0b3
#
DISCID=190efb13
DTITLE=Various Artist - Country plouzaky 3
DYEAR=2009
DGENRE=Country
TTITLE0=Kosmickej vandr
TTITLE1=Panenka
TTITLE2=Pane muj
TTITLE3=Zachrante milenky
TTITLE4=Kometa
TTITLE5=Na kameni kamen
TTITLE6=Nevadi
TTITLE7=Dzinova laska
TTITLE8=Posledni kovboj
TTITLE9=Divka s vlasem medovym
TTITLE10=Jarni kral
TTITLE11=Povidej
TTITLE12=Lasko, mne ubyva sil
TTITLE13=Sedmikraska
TTITLE14=Muz se srdcem kovboje
TTITLE15=Jaro
TTITLE16=Ma pychu kralu
TTITLE17=Oh, Ruby, nechtej mi lasku brat
TTITLE18=Cizinec
EXTD=
EXTT0=
EXTT1=
EXTT2=
EXTT3=
EXTT4=
EXTT5=
EXTT6=
EXTT7=
EXTT8=
EXTT9=
EXTT10=
EXTT11=
EXTT12=
EXTT13=
EXTT14=
EXTT15=
EXTT16=
EXTT17=
EXTT18=
PLAYORDER=
